<svg width="258" height="224" viewBox="0 0 258 224" fill="none" xmlns="http://www.w3.org/2000/svg">
<g clip-path="url(#clip0_156_3691)">
<g style="mix-blend-mode:multiply">
<path d="M112.554 216.844C155.95 216.844 191.13 211.162 191.13 204.153C191.13 197.144 155.95 191.462 112.554 191.462C69.1581 191.462 33.9785 197.144 33.9785 204.153C33.9785 211.162 69.1581 216.844 112.554 216.844Z" fill="#DEF2FF"/>
</g>
<g style="mix-blend-mode:multiply">
<path d="M179.418 224C222.814 224 257.993 218.318 257.993 211.309C257.993 204.301 222.814 198.619 179.418 198.619C136.021 198.619 100.842 204.301 100.842 211.309C100.842 218.318 136.021 224 179.418 224Z" fill="#BFDDF1"/>
</g>
<path d="M108.674 148.101V204.153" stroke="#27272A" stroke-width="4" stroke-linecap="round" stroke-linejoin="round"/>
<path d="M118.125 209.339C112.398 209.339 107.75 206.213 107.75 202.36C107.75 198.508 112.406 195.389 118.125 195.389C123.845 195.389 128.486 198.515 128.486 202.36C128.486 206.205 123.845 209.339 118.125 209.339Z" fill="#ADADAD" stroke="#27272A" stroke-width="4" stroke-linecap="round" stroke-linejoin="round"/>
<path d="M98.3047 148.101V204.153" stroke="#27272A" stroke-width="4" stroke-linecap="round" stroke-linejoin="round"/>
<path d="M88.8464 209.339C94.5809 209.339 99.2143 206.213 99.2143 202.36C99.2143 198.508 94.5735 195.389 88.8464 195.389C83.1193 195.389 78.4785 198.515 78.4785 202.36C78.4785 206.205 83.1193 209.339 88.8464 209.339Z" fill="#ADADAD" stroke="#27272A" stroke-width="4" stroke-linecap="round" stroke-linejoin="round"/>
<path d="M26.0352 70.4614C27.4392 93.9831 42.4109 112.185 59.5035 111.156" stroke="#27272A" stroke-width="4" stroke-linecap="round" stroke-linejoin="round"/>
<path d="M17.9281 62.3788C17.5881 56.6447 20.4184 51.807 24.2611 51.5773C28.1038 51.3477 31.481 55.8075 31.8209 61.5416C32.1608 67.2683 29.3379 72.0986 25.5026 72.3356C21.6599 72.5653 18.2754 68.1054 17.9281 62.3788Z" fill="#ADADAD" stroke="#27272A" stroke-width="4" stroke-linecap="round" stroke-linejoin="round"/>
<path d="M181.959 61.0969C183.363 84.6186 170.675 104.48 153.582 105.51" stroke="#27272A" stroke-width="4" stroke-linecap="round" stroke-linejoin="round"/>
<path d="M189.053 52.0958C188.713 46.3617 185.314 41.9019 181.486 42.1315C177.651 42.3612 174.821 47.1989 175.16 52.933C175.5 58.6596 178.892 63.1195 182.728 62.8898C186.556 62.6602 189.393 57.8225 189.053 52.0958Z" fill="#ADADAD" stroke="#27272A" stroke-width="4" stroke-linecap="round" stroke-linejoin="round"/>
<path d="M57.8184 155.828C50.5321 155.828 44.6055 149.886 44.6055 142.582V18.721C44.6055 11.4237 50.5321 5.48218 57.8184 5.48218H149.156C156.45 5.48218 162.377 11.4237 162.377 18.721V142.582C162.377 149.886 156.443 155.828 149.156 155.828H57.8184Z" fill="#00AFFF"/>
<path d="M149.156 6.96384C155.637 6.96384 160.898 12.2312 160.898 18.721V142.582C160.898 149.086 155.637 154.346 149.156 154.346H57.8179C51.337 154.346 46.0829 149.086 46.0829 142.582V18.721C46.0829 12.2312 51.337 6.96384 57.8179 6.96384H149.156ZM149.156 4.00049H57.8179C49.7186 4.00049 43.127 10.6014 43.127 18.721V142.582C43.127 150.701 49.7186 157.31 57.8179 157.31H149.156C157.262 157.31 163.854 150.701 163.854 142.582V18.721C163.854 10.6014 157.262 4.00049 149.156 4.00049Z" fill="#27272A"/>
<path d="M149.156 6.96387H124.806C139.874 19.7211 149.577 38.7236 149.577 59.6745C149.577 97.3388 118.215 128.765 80.6523 128.765C68.1414 128.765 56.303 125.268 46.0977 119.216V142.582C46.0977 149.086 51.3518 154.346 57.8327 154.346H149.171C155.651 154.346 160.913 149.086 160.913 142.582V18.721C160.913 12.2312 155.651 6.96387 149.171 6.96387H149.156Z" fill="#4AC8FF"/>
<path d="M85.1037 100.813C85.1037 105.776 81.0844 109.811 76.13 109.811C71.1756 109.811 67.1562 105.776 67.1562 100.813C67.1562 95.85 71.1832 91.8083 76.13 91.8083C81.077 91.8083 85.1037 95.8429 85.1037 100.813Z" fill="white" stroke="white"/>
<path d="M77.1823 97.9982C77.1823 100.198 75.4024 101.98 73.2115 101.98C71.0217 101.98 69.248 100.199 69.248 97.9982C69.248 95.7982 71.0285 94.0161 73.2115 94.0161C75.396 94.0161 77.1823 95.7924 77.1823 97.9982Z" fill="#15384D" stroke="white"/>
<path d="M79.2003 102.902C79.2003 103.483 78.74 103.951 78.1558 103.951C77.5716 103.951 77.1113 103.483 77.1113 102.902C77.1113 102.322 77.5864 101.847 78.1558 101.847C78.7268 101.847 79.2003 102.316 79.2003 102.902Z" fill="#15384D" stroke="white"/>
<path d="M139.811 100.813C139.811 105.776 135.791 109.811 130.837 109.811C125.883 109.811 121.863 105.776 121.863 100.813C121.863 95.8495 125.876 91.8083 130.837 91.8083C135.798 91.8083 139.811 95.8424 139.811 100.813Z" fill="white" stroke="white"/>
<path d="M131.889 97.9982C131.889 100.197 130.102 101.98 127.918 101.98C125.734 101.98 123.947 100.197 123.947 97.9982C123.947 95.7993 125.734 94.0161 127.918 94.0161C130.103 94.0161 131.889 95.7924 131.889 97.9982Z" fill="#15384D" stroke="white"/>
<path d="M133.915 102.902C133.915 103.479 133.443 103.951 132.87 103.951C132.295 103.951 131.818 103.476 131.818 102.902C131.818 102.321 132.28 101.847 132.87 101.847C133.459 101.847 133.915 102.312 133.915 102.902Z" fill="#15384D" stroke="white"/>
<path d="M124.762 132.84C124.762 132.84 116.574 123.253 101.433 123.253C88.1531 123.253 79.6992 132.84 79.6992 132.84" stroke="white" stroke-width="4" stroke-linecap="round" stroke-linejoin="round"/>
<path d="M180.764 6.99354V27.3592H183.468V6.99354H184.193L184.739 0.385254H179.227L180.039 6.99354H180.764Z" fill="#ADADAD" stroke="#27272A" stroke-width="1.05" stroke-linecap="round" stroke-linejoin="round"/>
<path d="M180.764 26.6629H183.468C185.937 26.6629 187.939 28.6706 187.939 31.145V49.9697C187.939 52.4441 185.937 54.4518 183.468 54.4518H180.764C178.296 54.4518 176.293 52.4441 176.293 49.9697V31.1376C176.293 28.6632 178.296 26.6555 180.764 26.6555V26.6629Z" fill="#FFE519"/>
<path d="M183.468 27.0481C185.722 27.0481 187.555 28.878 187.555 31.145V49.9697C187.555 52.2293 185.729 54.0591 183.468 54.0591H180.763C178.509 54.0591 176.684 52.2293 176.684 49.9697V31.145C176.684 28.8854 178.509 27.0481 180.763 27.0481H183.468ZM183.468 26.2703H180.763C178.088 26.2703 175.908 28.4557 175.908 31.1376V49.9623C175.908 52.6441 178.088 54.8296 180.763 54.8296H183.468C186.143 54.8296 188.323 52.6441 188.323 49.9623V31.1376C188.323 28.4557 186.143 26.2703 183.468 26.2703Z" fill="#27272A"/>
<path d="M180.762 54.0663H183.467C184.066 54.0663 184.627 53.933 185.137 53.7033C181.073 52.2216 178.102 48.273 178.102 43.7316C178.102 38.3383 182.299 33.7748 187.546 33.1969V31.1374C187.546 28.8778 185.721 27.0405 183.46 27.0405H180.755C178.501 27.0405 176.676 28.8704 176.676 31.1374V49.9621C176.676 52.2216 178.501 54.0515 180.755 54.0515L180.762 54.0663Z" fill="#D0A51D"/>
<path d="M184.805 51.54V29.8186" stroke="#27272A" stroke-width="1.05" stroke-linecap="round" stroke-linejoin="round"/>
<path d="M182.115 51.8808V29.2334" stroke="#27272A" stroke-width="1.05" stroke-linecap="round" stroke-linejoin="round"/>
<path d="M179.426 51.54V29.8186" stroke="#27272A" stroke-width="1.05" stroke-linecap="round" stroke-linejoin="round"/>
<path d="M81.3561 74.5211H84.8515V76.8474H81.3561V81.611H85.7604V83.9372H78.8066V67.6536H85.7604V69.9798H81.3561V74.5137V74.5211Z" fill="#27272A"/>
<path d="M92.6772 83.9372C92.5442 83.5149 92.4408 83.2556 92.4408 81.9369V79.381C92.4408 77.8697 91.9309 77.3141 90.778 77.3141H89.8839V83.9372H87.3418V67.6536H91.1919C93.83 67.6536 94.9755 68.8908 94.9755 71.3948V72.6839C94.9755 74.3507 94.436 75.4398 93.298 75.9806C94.5764 76.5214 94.9976 77.7438 94.9976 79.4403V81.9443C94.9976 82.7445 95.0124 83.3297 95.271 83.9298H92.6698L92.6772 83.9372ZM89.8913 69.9872V74.9879H90.8963C91.8496 74.9879 92.426 74.573 92.426 73.2617V71.6615C92.426 70.4984 92.0417 69.9872 91.1254 69.9872H89.8913Z" fill="#27272A"/>
<path d="M102.003 83.9372C101.87 83.5149 101.767 83.2556 101.767 81.9369V79.381C101.767 77.8697 101.257 77.3141 100.097 77.3141H99.2174V83.9372H96.668V67.6536H100.518C103.164 67.6536 104.302 68.8908 104.302 71.3948V72.6839C104.302 74.3507 103.77 75.4398 102.639 75.9806C103.91 76.5214 104.331 77.7438 104.331 79.4403V81.9443C104.331 82.7445 104.346 83.3297 104.605 83.9298H102.011L102.003 83.9372ZM99.2248 69.9872V74.9879H100.222C101.183 74.9879 101.752 74.573 101.752 73.2617V71.6615C101.752 70.4984 101.36 69.9872 100.459 69.9872H99.2248Z" fill="#27272A"/>
<path d="M105.793 71.5725C105.793 68.9573 107.16 67.4683 109.673 67.4683C112.185 67.4683 113.537 68.9573 113.537 71.5725V80.0329C113.537 82.6332 112.178 84.1223 109.673 84.1223C107.167 84.1223 105.793 82.6332 105.793 80.0329V71.5725ZM108.35 80.1959C108.35 81.359 108.86 81.7961 109.673 81.7961C110.485 81.7961 110.995 81.3516 110.995 80.1959V71.4021C110.995 70.239 110.478 69.8019 109.673 69.8019C108.867 69.8019 108.35 70.2464 108.35 71.4021V80.1959Z" fill="#27272A"/>
<path d="M120.538 83.9372C120.397 83.5149 120.294 83.2556 120.294 81.9369V79.381C120.294 77.8697 119.791 77.3141 118.631 77.3141H117.744V83.9372H115.188V67.6536H119.045C121.691 67.6536 122.829 68.8908 122.829 71.3948V72.6839C122.829 74.3507 122.289 75.4398 121.151 75.9806C122.43 76.5214 122.851 77.7438 122.851 79.4403V81.9443C122.851 82.7445 122.88 83.3297 123.132 83.9298H120.538V83.9372ZM117.752 69.9872V74.9879H118.742C119.703 74.9879 120.279 74.573 120.279 73.2617V71.6615C120.279 70.4984 119.895 69.9872 118.978 69.9872H117.752Z" fill="#27272A"/>
<path d="M15.3425 67.8979C15.2982 67.8979 15.2465 67.8978 15.2021 67.883C15.01 67.846 14.84 67.7349 14.7292 67.5719L10.3322 61.0229C10.1032 60.6821 10.1918 60.2228 10.5318 59.9931L33.7949 44.2873C33.9205 44.2058 34.0609 44.1614 34.2087 44.1614C34.253 44.1614 34.3048 44.1614 34.3491 44.1762C34.5412 44.2132 34.7112 44.3244 34.822 44.4873L39.219 51.0364C39.4481 51.3771 39.3594 51.8365 39.0194 52.0661L15.7564 67.7719C15.6307 67.8534 15.4903 67.8979 15.3425 67.8979Z" fill="#ADADAD"/>
<path d="M34.209 44.9023L38.6059 51.4513L15.3428 67.1571L10.9459 60.6081L34.209 44.9023ZM34.209 43.4207C33.9208 43.4207 33.6252 43.5096 33.3813 43.6725L10.1182 59.3783C9.43837 59.8376 9.26102 60.7563 9.71919 61.4379L14.1161 67.9869C14.3378 68.3128 14.6703 68.5351 15.062 68.6166C15.1581 68.6314 15.2468 68.6462 15.3428 68.6462C15.631 68.6462 15.9266 68.5573 16.1705 68.3943L39.4336 52.6885C40.1134 52.2292 40.2908 51.3106 39.8326 50.629L35.4357 44.08C35.214 43.754 34.8814 43.5318 34.4898 43.4503C34.3937 43.4355 34.305 43.4207 34.209 43.4207Z" fill="#27272A"/>
<path d="M36.7209 48.6434C33.6542 48.0804 30.3805 48.6434 27.6463 50.4955C23.6779 53.1774 21.7714 57.9039 22.3625 62.4156L15.3422 67.1496L10.9453 60.6006L34.2084 44.8948L36.7209 48.636V48.6434Z" fill="#6C7074"/>
<path d="M40.1128 54.5999C37.1421 54.5999 34.3857 53.1256 32.7304 50.6586C31.4002 48.6806 30.9199 46.3099 31.3781 43.9689C31.8362 41.6278 33.1738 39.6127 35.1395 38.2792C36.61 37.2865 38.3245 36.7605 40.098 36.7605C41.6129 36.7605 43.1131 37.1531 44.4432 37.8866C44.6649 38.0125 44.8127 38.2422 44.8201 38.5015C44.8275 38.7608 44.7092 39.0052 44.4949 39.146L38.2284 43.3762C38.0067 43.5244 37.8515 43.754 37.7998 44.0207C37.7481 44.2874 37.7998 44.5541 37.955 44.7764L40.1276 48.0138C40.3123 48.2954 40.6301 48.4583 40.9626 48.4583C41.1621 48.4583 41.3543 48.3991 41.5242 48.288L47.7908 44.0578C47.9164 43.9763 48.0568 43.9318 48.2046 43.9318C48.3081 43.9318 48.4115 43.954 48.515 43.9985C48.7515 44.1022 48.914 44.3245 48.9436 44.5838C49.3574 47.9398 47.8795 51.192 45.0861 53.0738C43.6082 54.0665 41.8937 54.5999 40.1202 54.5999H40.1128Z" fill="#ADADAD"/>
<path d="M40.0983 37.5013C41.4876 37.5013 42.8621 37.8569 44.0814 38.5385L37.8148 42.7686C37.0168 43.3095 36.8024 44.3985 37.3419 45.1986L39.5145 48.4361C39.8544 48.9398 40.4013 49.2065 40.9629 49.2065C41.2954 49.2065 41.6354 49.1102 41.9384 48.9102L48.2049 44.68C48.567 47.636 47.3034 50.6882 44.6652 52.4662C43.2685 53.4071 41.6797 53.8664 40.1131 53.8664C37.4897 53.8664 34.9181 52.5996 33.344 50.2585C30.8241 46.5099 31.8143 41.4277 35.5536 38.9089C36.9502 37.968 38.5317 37.5161 40.0983 37.5161M40.0983 36.0344C38.1843 36.0344 36.3221 36.6049 34.7259 37.6791C32.5903 39.1237 31.1419 41.3092 30.6467 43.8429C30.1516 46.3765 30.6763 48.9472 32.1099 51.0883C33.8983 53.7553 36.8911 55.3555 40.1057 55.3555C42.027 55.3555 43.8819 54.7851 45.4855 53.7034C48.5079 51.6661 50.1115 48.1397 49.6607 44.5096C49.6016 43.9984 49.2764 43.5539 48.8109 43.3391C48.6113 43.2502 48.4044 43.2057 48.1975 43.2057C47.9093 43.2057 47.6211 43.2946 47.3699 43.4576L41.1033 47.6878C41.059 47.7175 41.0072 47.7323 40.9555 47.7323C40.9112 47.7323 40.8077 47.7175 40.7338 47.6137L38.5612 44.3763C38.5095 44.3022 38.5095 44.2281 38.5169 44.1762C38.5243 44.1244 38.5538 44.0577 38.6277 44.0059L44.8943 39.7757C45.3229 39.4867 45.5667 38.9978 45.5446 38.4866C45.5224 37.968 45.2342 37.5013 44.7834 37.2568C43.3498 36.4567 41.7241 36.0344 40.0835 36.0344H40.0983Z" fill="#27272A"/>
<path d="M39.9573 37.5085C35.5086 41.5165 34.5184 48.4507 37.9177 53.5551C36.1146 53.0513 34.4741 51.9253 33.3434 50.251C30.8235 46.5023 31.8137 41.4202 35.553 38.9013C36.9053 37.9901 38.435 37.5382 39.9573 37.516V37.5085Z" fill="#6C7074"/>
<path d="M9.64448 75.1655C8.12957 75.1655 6.62944 74.7728 5.30667 74.0394C5.08498 73.9135 4.93718 73.6838 4.92979 73.4245C4.9224 73.1652 5.04064 72.9207 5.25494 72.78L11.5215 68.5498C11.7432 68.4016 11.891 68.172 11.9427 67.9053C11.9944 67.6386 11.9427 67.3719 11.7875 67.1496L9.61492 63.9121C9.43018 63.6306 9.11241 63.4676 8.77987 63.4676C8.58035 63.4676 8.38821 63.5269 8.21825 63.638L1.9517 67.8682C1.82607 67.9497 1.68567 67.9942 1.53787 67.9942C1.43442 67.9942 1.33096 67.9719 1.2275 67.9275C0.991028 67.8238 0.828452 67.6015 0.798893 67.3422C0.385064 63.9862 1.87041 60.7339 4.65637 58.8522C6.13433 57.8595 7.84876 57.3335 9.61492 57.3335C12.5856 57.3335 15.342 58.8078 17.0047 61.2748C19.7463 65.3494 18.66 70.9057 14.5956 73.6542C13.1177 74.6469 11.4033 75.1729 9.63709 75.1729L9.64448 75.1655Z" fill="#ADADAD"/>
<path d="M9.62981 58.067C12.2532 58.067 14.8322 59.3338 16.4063 61.6823C18.9262 65.4309 17.9359 70.5057 14.1967 73.0319C12.8 73.9728 11.2186 74.4247 9.65198 74.4247C8.2627 74.4247 6.8882 74.0691 5.66888 73.3875L11.9354 69.1573C12.7335 68.6165 12.9478 67.5275 12.4084 66.7274L10.2358 63.4899C9.89584 62.9861 9.349 62.7194 8.78737 62.7194C8.45483 62.7194 8.1149 62.8157 7.81192 63.0158L1.54537 67.246C1.18327 64.29 2.44693 61.2378 5.08508 59.4597C6.48176 58.5189 8.06317 58.067 9.62981 58.067ZM9.62981 56.5853C7.70846 56.5853 5.85362 57.1557 4.25743 58.2299C1.235 60.2673 -0.368586 63.7937 0.0748022 67.4238C0.133921 67.9349 0.459072 68.3794 0.924629 68.5943C1.11676 68.6832 1.33107 68.7276 1.53798 68.7276C1.82618 68.7276 2.11439 68.6387 2.36564 68.4758L8.63219 64.2456C8.67653 64.2159 8.72826 64.2011 8.77998 64.2011C8.82432 64.2011 8.93517 64.2159 9.00168 64.3196L11.1743 67.5571C11.226 67.6312 11.226 67.7127 11.2186 67.7571C11.2112 67.8016 11.1817 67.8757 11.1078 67.9275L4.84122 72.1577C4.41261 72.4466 4.16875 72.9356 4.19092 73.4468C4.21309 73.958 4.50129 74.4247 4.95207 74.6766C6.38569 75.4767 8.01145 75.899 9.65198 75.899C11.5659 75.899 13.4282 75.3285 15.0244 74.2543C19.4287 71.2761 20.6037 65.2679 17.633 60.8451C15.8372 58.1707 12.8518 56.5779 9.62981 56.5779V56.5853Z" fill="#27272A"/>
<path d="M10.0206 74.4173C8.50565 74.484 6.99813 74.1358 5.66797 73.395L8.65345 71.3799C8.95643 72.4319 9.4146 73.4542 10.0206 74.4173Z" fill="#6C7074"/>
<path d="M12.3417 58.5337C10.9894 59.7264 9.94002 61.1859 9.23799 62.7861C8.76505 62.6602 8.24776 62.7268 7.81176 63.0232L1.54521 67.2534C1.18311 64.2974 2.44677 61.2451 5.08493 59.4671C7.30926 57.9706 10.0065 57.7114 12.3491 58.5337H12.3417Z" fill="#6C7074"/>
<path d="M31.4518 52.97L19.8867 60.771" stroke="#27272A" stroke-width="2" stroke-linecap="round" stroke-linejoin="round"/>
<path d="M30.1217 50.9771L18.5566 58.7855" stroke="#27272A" stroke-width="2" stroke-linecap="round" stroke-linejoin="round"/>
<path d="M131.833 204.042C131.309 204.042 130.814 203.76 130.555 203.301C130.289 202.842 130.289 202.279 130.555 201.819L180.835 114.504C181.101 114.045 181.589 113.763 182.114 113.763C182.638 113.763 183.133 114.045 183.392 114.504L208.54 158.162L233.68 201.819C233.946 202.279 233.946 202.842 233.68 203.301C233.414 203.76 232.926 204.042 232.401 204.042H131.841H131.833Z" fill="#CE4F01"/>
<path d="M182.114 115.245L207.261 158.902L232.401 202.56H131.841L156.981 158.902L182.121 115.245M182.121 112.281C181.064 112.281 180.089 112.845 179.564 113.763L154.424 157.421L129.284 201.078C128.759 201.997 128.759 203.123 129.284 204.042C129.809 204.96 130.784 205.523 131.841 205.523H232.401C233.458 205.523 234.434 204.96 234.958 204.042C235.483 203.123 235.483 201.997 234.958 201.078L209.818 157.421L184.671 113.763C184.146 112.845 183.171 112.281 182.114 112.281H182.121Z" fill="#27272A"/>
<path d="M207.264 158.902L201.781 149.375C200.532 170.208 182.856 187.18 161.809 187.18C155.188 187.18 148.907 185.499 143.364 182.55L131.844 202.553H232.404L207.264 158.895V158.902Z" fill="#CB0017"/>
<path d="M250.227 193.915H114.011C113.195 193.915 112.533 194.578 112.533 195.396V215.095C112.533 215.913 113.195 216.577 114.011 216.577H250.227C251.044 216.577 251.705 215.913 251.705 215.095V195.396C251.705 194.578 251.044 193.915 250.227 193.915Z" fill="#CE4F01"/>
<path d="M250.227 195.396V215.095H114.011V195.396H250.227ZM250.227 192.433H114.011C112.377 192.433 111.055 193.759 111.055 195.396V215.095C111.055 216.732 112.377 218.058 114.011 218.058H250.227C251.86 218.058 253.183 216.732 253.183 215.095V195.396C253.183 193.759 251.86 192.433 250.227 192.433Z" fill="#27272A"/>
<path d="M132.093 203.59C131.569 203.59 131.073 203.308 130.815 202.849C130.549 202.39 130.549 201.827 130.815 201.367L143.318 179.653C143.584 179.194 144.072 178.913 144.597 178.913H219.633C220.157 178.913 220.653 179.194 220.911 179.653L233.415 201.367C233.681 201.827 233.681 202.39 233.415 202.849C233.149 203.308 232.661 203.59 232.136 203.59H132.093Z" fill="white"/>
<path d="M219.632 180.394L232.136 202.108H132.093L144.596 180.394H219.632ZM219.632 177.431H144.596C143.54 177.431 142.564 177.994 142.04 178.913L129.536 200.627C129.011 201.545 129.011 202.671 129.536 203.59C130.061 204.509 131.044 205.072 132.093 205.072H232.136C233.193 205.072 234.168 204.509 234.693 203.59C235.218 202.671 235.218 201.545 234.693 200.627L222.189 178.913C221.665 177.994 220.682 177.431 219.632 177.431Z" fill="#27272A"/>
<path d="M133.41 199.826L132.102 202.108H232.145L229.869 198.152L219.641 180.394H183.845C177.49 184.669 169.9 187.188 161.801 187.188C155.18 187.188 148.899 185.506 143.356 182.557L133.402 199.826H133.41Z" fill="#D1D1D1"/>
<path d="M157.109 160.155C156.584 160.155 156.089 159.873 155.83 159.414C155.564 158.954 155.564 158.391 155.83 157.932L168.334 136.218C168.6 135.759 169.088 135.477 169.612 135.477H194.634C195.159 135.477 195.654 135.759 195.913 136.218L208.416 157.932C208.682 158.391 208.682 158.954 208.416 159.414C208.15 159.873 207.662 160.155 207.138 160.155H157.116H157.109Z" fill="white"/>
<path d="M194.627 136.959L207.13 158.673H157.109L169.612 136.959H194.634M194.634 133.996H169.612C168.555 133.996 167.58 134.559 167.055 135.477L154.552 157.191C154.027 158.11 154.027 159.236 154.552 160.155C155.076 161.073 156.052 161.636 157.109 161.636H207.13C208.187 161.636 209.162 161.073 209.687 160.155C210.212 159.236 210.212 158.11 209.687 157.191L197.183 135.477C196.659 134.559 195.683 133.996 194.627 133.996H194.634Z" fill="#27272A"/>
<path d="M207.13 158.673L204.188 153.576L201.772 149.375C201.58 152.583 200.996 155.695 200.072 158.673H207.13Z" fill="#C6C6C6"/>
<path d="M73.7479 39.8127L75.399 25.5837H91.3992V30.1291H80.0772L79.4089 36.4531C79.9331 36.1369 80.5883 35.8734 81.3745 35.6626C82.187 35.4254 82.947 35.3069 83.6546 35.3069C86.3803 35.3069 88.4901 36.1369 89.9839 37.7969C91.504 39.4306 92.2641 41.7099 92.2641 44.6347C92.2641 46.4792 91.884 48.1129 91.124 49.5358C90.364 50.9587 89.2632 52.0786 87.8218 52.8954C86.4065 53.6859 84.7292 54.0812 82.7898 54.0812C80.9028 54.0548 79.2254 53.6728 77.7578 52.935C76.3163 52.1972 75.1893 51.209 74.3769 49.9706C73.5644 48.7058 73.1582 47.3093 73.1582 45.781H78.9764C79.0551 46.9667 79.422 47.9021 80.0772 48.5872C80.7586 49.246 81.6497 49.5753 82.7504 49.5753C85.2402 49.5753 86.4851 47.8099 86.4851 44.279C86.4851 42.6717 86.1051 41.4464 85.3451 40.6032C84.6112 39.76 83.5236 39.3384 82.0821 39.3384C80.431 39.3384 79.1861 39.8654 78.3474 40.9194L73.7479 39.8127Z" fill="white"/>
<path d="M114.837 42.1842C114.837 45.9786 113.998 48.9166 112.321 50.9982C110.67 53.0535 108.324 54.0812 105.284 54.0812C102.244 54.0812 99.8853 53.0535 98.2079 50.9982C96.5306 48.9166 95.6919 45.9786 95.6919 42.1842V37.0855C95.6919 33.2911 96.5175 30.3662 98.1686 28.3109C99.8459 26.2293 102.205 25.1885 105.245 25.1885C108.285 25.1885 110.644 26.2293 112.321 28.3109C113.998 30.3926 114.837 33.3174 114.837 37.0855V42.1842ZM101.51 42.8956C101.51 45.1617 101.812 46.8481 102.414 47.9548C103.043 49.0352 104 49.5753 105.284 49.5753C106.542 49.5753 107.473 49.0352 108.075 47.9548C108.704 46.8745 109.032 45.2408 109.058 43.0537V36.3345C109.058 34.1211 108.744 32.4611 108.115 31.3544C107.512 30.2477 106.555 29.6943 105.245 29.6943C102.807 29.6943 101.563 31.7891 101.51 35.9788V42.8956Z" fill="white"/>
<path d="M137.449 42.1842C137.449 45.9786 136.611 48.9166 134.933 50.9982C133.282 53.0535 130.937 54.0812 127.897 54.0812C124.856 54.0812 122.498 53.0535 120.82 50.9982C119.143 48.9166 118.304 45.9786 118.304 42.1842V37.0855C118.304 33.2911 119.13 30.3662 120.781 28.3109C122.458 26.2293 124.817 25.1885 127.857 25.1885C130.897 25.1885 133.256 26.2293 134.933 28.3109C136.611 30.3926 137.449 33.3174 137.449 37.0855V42.1842ZM124.123 42.8956C124.123 45.1617 124.424 46.8481 125.027 47.9548C125.656 49.0352 126.612 49.5753 127.897 49.5753C129.155 49.5753 130.085 49.0352 130.688 47.9548C131.317 46.8745 131.644 45.2408 131.671 43.0537V36.3345C131.671 34.1211 131.356 32.4611 130.727 31.3544C130.124 30.2477 129.168 29.6943 127.857 29.6943C125.42 29.6943 124.175 31.7891 124.123 35.9788V42.8956Z" fill="white"/>
</g>
<defs>
<clipPath id="clip0_156_3691">
<rect width="258" height="224" fill="white"/>
</clipPath>
</defs>
</svg>
