<svg width="276" height="268" viewBox="0 0 276 268" fill="none" xmlns="http://www.w3.org/2000/svg">
<g clip-path="url(#clip0_156_3662)">
<path opacity="0.18" d="M84.1167 180.871C102.216 188.843 122.688 188.72 142.459 188.457C152.83 188.325 163.56 188.115 173.004 183.809C186.132 177.819 194.657 164.962 206.175 156.262C219.399 146.256 236.326 141.941 249.148 131.426C255.388 126.312 260.442 119.897 263.956 112.626C267.47 105.356 269.361 97.4057 269.497 89.3286C269.633 81.2516 268.01 73.2419 264.742 65.8572C261.474 58.4724 256.64 51.8901 250.574 46.5683C243.791 40.6223 235.696 36.4215 227.67 32.2909L187.366 11.5061C177.923 6.63883 168.234 1.6926 157.696 0.368339C148.804 -0.745441 139.807 0.798066 131.116 2.78884C106.347 8.40159 81.7711 18.0748 63.6016 35.7813C47.9702 51.0409 37.7652 71.5363 20.6634 85.1209C16.2873 88.585 11.4386 91.6457 8.2528 96.2236C-3.21256 112.72 8.40158 133.794 23.2978 142.248C43.9267 153.947 62.4901 171.355 84.1167 180.871Z" fill="#81D8FF"/>
<path d="M138.004 268C214.222 268 276.009 260.351 276.009 250.916C276.009 241.481 214.222 233.833 138.004 233.833C61.7867 233.833 0 241.481 0 250.916C0 260.351 61.7867 268 138.004 268Z" fill="#81D8FF"/>
<path d="M138.004 268C214.222 268 276.009 260.351 276.009 250.916C276.009 241.481 214.222 233.833 138.004 233.833C61.7867 233.833 0 241.481 0 250.916C0 260.351 61.7867 268 138.004 268Z" fill="url(#paint0_linear_156_3662)"/>
<path d="M62.4031 84.0158C59.8433 82.2764 56.9611 81.0696 53.9272 80.467C50.8934 79.8644 47.7696 79.8783 44.7412 80.5078C43.6328 80.6809 42.5854 81.1302 41.6955 81.8146C39.6212 83.5685 39.945 86.8309 39.3936 89.5145C38.7197 92.8208 36.5054 95.6535 35.709 98.9159C35.2451 101.371 35.2185 103.889 35.6302 106.353C36.7963 116.073 39.1206 125.619 42.5532 134.785L32.9258 261.87C32.9258 261.87 42.772 263.466 62.7445 265.062L64.8625 144.037L62.4031 84.0158Z" fill="#EEA886"/>
<path d="M51.4531 158.131L64.2051 209.803V135.276L58.5336 118.385L51.4531 158.131Z" fill="url(#paint1_linear_156_3662)"/>
<path d="M218.209 85.1034C220.775 83.3769 223.659 82.1831 226.693 81.5926C229.726 81.0022 232.847 81.027 235.871 81.6656C236.981 81.8426 238.03 82.2914 238.926 82.9723C240.991 84.7263 240.676 87.9887 241.219 90.6811C241.901 93.9874 244.116 96.82 244.912 100.082C245.377 102.534 245.401 105.05 244.982 107.511C243.824 117.232 241.503 126.778 238.068 135.943L247.652 261.256C247.652 261.256 236.93 263.063 217.772 264.878L215.715 145.186L218.209 85.1034Z" fill="#EEA886"/>
<path d="M230.795 154.438L226.27 177.722L216.634 198.726L215.785 153.018L230.795 154.438Z" fill="url(#paint2_linear_156_3662)"/>
<path d="M224.039 42.4463H53.3978C49.352 42.4463 46.0723 45.7327 46.0723 49.7867V152.07C46.0723 156.124 49.352 159.411 53.3978 159.411H224.039C228.085 159.411 231.365 156.124 231.365 152.07V49.7867C231.365 45.7327 228.085 42.4463 224.039 42.4463Z" fill="#81D8FF"/>
<path d="M224.039 42.4463H53.3978C49.352 42.4463 46.0723 45.7327 46.0723 49.7867V152.07C46.0723 156.124 49.352 159.411 53.3978 159.411H224.039C228.085 159.411 231.365 156.124 231.365 152.07V49.7867C231.365 45.7327 228.085 42.4463 224.039 42.4463Z" fill="url(#paint3_linear_156_3662)"/>
<path d="M224.039 37.7544H53.3978C49.352 37.7544 46.0723 41.0408 46.0723 45.0948V147.378C46.0723 151.432 49.352 154.719 53.3978 154.719H224.039C228.085 154.719 231.365 151.432 231.365 147.378V45.0948C231.365 41.0408 228.085 37.7544 224.039 37.7544Z" fill="#81D8FF"/>
<path d="M62.4824 86.5153C65.4319 83.2354 65.4319 83.2354 68.7665 79.3065L82.9713 62.6436C85.2054 60.1991 87.2533 57.59 89.0978 54.8384H102.515C102.138 58.4535 101.966 62.0872 101.999 65.7219V87.0415H103.898C106.066 87.021 108.231 86.8451 110.374 86.5153V98.46C108.246 98.1953 106.104 98.0635 103.959 98.0653H101.999V101.345C101.938 104.045 102.111 106.744 102.515 109.414H89.0365C89.402 106.696 89.5745 103.956 89.5529 101.214V98.0478H70.9983C66.736 98.0478 64.8718 98.1092 62.4824 98.3021V86.5153ZM89.6142 79.5696C89.6142 76.6141 89.7455 73.0097 90.008 70.1244C88.6952 71.9573 87.715 73.2728 85.947 75.5003L76.3634 87.1731H89.5879L89.6142 79.5696Z" fill="white"/>
<path d="M121.201 104.494C119.111 102.433 117.483 99.9524 116.422 97.2145C114.697 92.3959 113.832 87.3107 113.866 82.1916C113.866 75.2985 115.503 68.1597 117.997 64.0203C121.988 57.3289 128.797 53.6543 137.042 53.6543C143.396 53.6543 148.962 55.8205 152.953 59.7932C155.045 61.8511 156.674 64.3328 157.732 67.0723C159.466 71.9097 160.332 77.0167 160.288 82.1565C160.288 89.0497 158.651 96.2673 156.166 100.398C152.236 106.958 145.357 110.632 137.042 110.632C130.627 110.597 125.2 108.493 121.201 104.494ZM127.327 81.6917C127.327 93.4347 130.662 99.4684 137.147 99.4684C143.632 99.4684 146.836 93.5662 146.836 81.9285C146.801 70.6416 143.37 64.7219 137.042 64.7219C130.889 64.7219 127.292 70.9749 127.292 81.6654L127.327 81.6917Z" fill="white"/>
<path d="M163.684 86.5153C166.633 83.2354 166.633 83.2354 169.968 79.3065L184.181 62.6436C186.401 60.1981 188.434 57.589 190.264 54.8384H203.69C203.306 58.453 203.13 62.0869 203.165 65.7219V87.0415H205.064C207.233 87.021 209.397 86.8451 211.541 86.5153V98.46C209.412 98.1953 207.27 98.0635 205.125 98.0653H203.165V101.345C203.102 104.045 203.278 106.745 203.69 109.414H190.203C190.572 106.696 190.747 103.956 190.728 101.214V98.0478H172.199C167.946 98.0478 166.073 98.1092 163.684 98.3021V86.5153ZM190.815 79.5696C190.815 76.6141 190.947 73.0097 191.209 70.1244C189.896 71.9573 188.916 73.2728 187.148 75.5003L177.565 87.1731H190.789L190.815 79.5696Z" fill="white"/>
<path d="M63.1123 128.628C64.2145 128.448 65.33 128.36 66.4469 128.365C67.8019 128.262 69.1475 128.662 70.2278 129.488C70.6172 129.845 70.9245 130.282 71.1285 130.77C71.3326 131.257 71.4284 131.783 71.4093 132.312C71.4363 132.838 71.358 133.364 71.1792 133.86C71.0003 134.355 70.7245 134.81 70.3678 135.197C69.8161 135.71 69.1665 136.106 68.458 136.361C67.7495 136.615 66.9969 136.724 66.2456 136.679C65.7784 136.696 65.3109 136.655 64.854 136.556V141.967H63.1035L63.1123 128.628ZM64.8627 135.136C65.3331 135.245 65.8156 135.292 66.2981 135.276C68.3986 135.276 69.6764 134.259 69.6764 132.391C69.6764 130.523 68.4161 129.76 66.4994 129.76C65.9503 129.745 65.4013 129.792 64.8627 129.9V135.136Z" fill="white"/>
<path d="M74.227 137.723L72.8266 141.967H71.0762L75.6448 128.47H77.7278L82.3227 141.967H80.4673L79.0319 137.723H74.227ZM78.6031 136.363L77.2815 132.478C76.9839 131.601 76.7826 130.794 76.5813 130.014C76.3888 130.812 76.1612 131.636 75.9074 132.452L74.5858 136.363H78.6031Z" fill="white"/>
<path d="M94.2517 141.362C92.9235 141.843 91.5239 142.095 90.1119 142.108C89.1917 142.196 88.2633 142.082 87.3919 141.773C86.5206 141.463 85.7275 140.966 85.0684 140.317C84.4093 139.667 83.9003 138.881 83.5771 138.013C83.2539 137.145 83.1244 136.217 83.1977 135.293C83.1977 131.268 85.9721 128.33 90.4882 128.33C91.6395 128.302 92.784 128.514 93.8491 128.953L93.429 130.374C92.492 129.962 91.4756 129.765 90.4532 129.795C87.1711 129.795 85.0356 131.838 85.0356 135.215C85.0356 138.591 87.0924 140.669 90.2344 140.669C91.0247 140.711 91.815 140.586 92.5537 140.301V136.284H89.8143V134.881H94.2517V141.362Z" fill="white"/>
<path d="M103.88 135.635H98.6284V140.503H104.466V141.967H96.8867V128.47H104.169V129.935H98.6459V134.197H103.897L103.88 135.635Z" fill="white"/>
<path d="M110.986 141.967V128.47H112.886L117.2 135.293C118.099 136.703 118.909 138.167 119.625 139.678C119.467 137.924 119.423 136.241 119.423 134.136V128.488H121.069V141.985H119.318L115.039 135.136C114.11 133.684 113.268 132.179 112.518 130.628H112.457C112.562 132.338 112.597 133.96 112.597 136.197V141.967H110.986Z" fill="white"/>
<path d="M135.64 135.074C135.64 139.722 132.822 142.187 129.383 142.187C125.943 142.187 123.326 139.424 123.326 135.337C123.326 131.049 125.952 128.251 129.584 128.251C133.216 128.251 135.64 131.075 135.64 135.074ZM125.19 135.293C125.19 138.179 126.748 140.766 129.488 140.766C132.227 140.766 133.803 138.223 133.803 135.153C133.803 132.478 132.402 129.672 129.505 129.672C126.608 129.672 125.19 132.338 125.19 135.293Z" fill="white"/>
<path d="M139.955 129.953H135.859V128.47H145.837V129.953H141.715V141.967H139.964L139.955 129.953Z" fill="white"/>
<path d="M151.569 128.47H158.825V129.935H153.311V134.416H158.405V135.855H153.311V141.994H151.561L151.569 128.47Z" fill="white"/>
<path d="M172.811 135.074C172.811 139.722 169.993 142.187 166.562 142.187C163 142.187 160.506 139.424 160.506 135.337C160.506 131.049 163.132 128.251 166.755 128.251C170.378 128.251 172.811 131.075 172.811 135.074ZM162.361 135.293C162.361 138.179 163.919 140.766 166.659 140.766C169.398 140.766 170.973 138.223 170.973 135.153C170.973 132.478 169.573 129.672 166.676 129.672C163.779 129.672 162.361 132.338 162.361 135.293Z" fill="white"/>
<path d="M176.811 128.47V136.46C176.811 139.485 178.15 140.766 179.953 140.766C181.948 140.766 183.226 139.442 183.226 136.46V128.47H184.977V136.363C184.977 140.512 182.797 142.213 179.883 142.213C177.126 142.213 175.043 140.634 175.043 136.442V128.497L176.811 128.47Z" fill="white"/>
<path d="M188.006 141.967V128.47H189.905L194.22 135.293C195.119 136.701 195.926 138.166 196.635 139.678H196.679C196.522 137.924 196.478 136.241 196.478 134.136V128.488H198.115V141.985H196.364L192.093 135.136C191.161 133.686 190.319 132.181 189.573 130.628H189.511C189.608 132.338 189.651 133.96 189.651 136.197V141.967H188.006Z" fill="white"/>
<path d="M201.133 128.646C202.358 128.461 203.596 128.368 204.835 128.365C207.329 128.365 209.115 128.953 210.288 130.049C210.935 130.672 211.44 131.428 211.768 132.265C212.096 133.103 212.239 134.001 212.187 134.899C212.237 135.861 212.091 136.824 211.758 137.729C211.426 138.633 210.914 139.461 210.253 140.161C208.992 141.424 206.909 142.108 204.292 142.108C203.236 142.1 202.181 142.029 201.133 141.897V128.646ZM202.883 140.582C203.463 140.668 204.048 140.703 204.634 140.687C208.353 140.687 210.366 138.6 210.366 134.96C210.366 131.777 208.616 129.751 204.914 129.751C204.229 129.738 203.546 129.8 202.874 129.935L202.883 140.582Z" fill="white"/>
<path d="M53.9221 82.481C54.6731 82.8557 55.3129 83.4212 55.7776 84.121C56.1621 84.9434 56.3509 85.8441 56.329 86.752L56.5915 92.4086C56.7103 93.3392 56.5991 94.2849 56.2677 95.1623C56.0911 95.5953 55.768 95.952 55.3551 96.1701C54.9422 96.3882 54.4659 96.4537 54.0096 96.355C54.3447 97.456 54.4531 98.6137 54.3283 99.7579C54.2034 100.902 53.8479 102.009 53.2832 103.011C53.0002 103.434 52.7791 103.894 52.6268 104.38C52.5541 104.965 52.5837 105.558 52.7143 106.134C52.9128 107.552 52.807 108.997 52.404 110.372C52.0011 111.747 51.3102 113.019 50.3775 114.105C50.0923 114.461 49.7418 114.759 49.3447 114.982C48.8241 115.205 48.2653 115.324 47.6993 115.333L45.1262 115.552C44.999 115.594 44.8639 115.606 44.7313 115.588C44.5987 115.569 44.4722 115.52 44.3614 115.445C44.2507 115.369 44.1587 115.269 44.0925 115.153C44.0263 115.036 43.9877 114.906 43.9796 114.772C42.0259 108.562 41.1381 102.065 41.354 95.557C41.4552 92.2778 41.8477 89.0142 42.5268 85.8048C42.9381 83.9281 43.7433 81.0691 45.7476 80.3061C48.3382 79.394 51.6816 81.1919 53.9221 82.481Z" fill="#EEA886"/>
<path d="M222.944 82.4811C222.193 82.8557 221.553 83.4212 221.089 84.121C220.704 84.9434 220.515 85.8441 220.537 86.752L220.275 92.4086C220.156 93.3393 220.267 94.2849 220.599 95.1624C220.775 95.5953 221.098 95.9521 221.511 96.1702C221.924 96.3883 222.4 96.4537 222.857 96.3551C222.522 97.4558 222.413 98.6128 222.537 99.7567C222.66 100.901 223.013 102.008 223.574 103.011C223.863 103.431 224.088 103.893 224.239 104.38C224.313 104.965 224.281 105.56 224.143 106.134C223.949 107.553 224.057 108.998 224.462 110.372C224.866 111.746 225.557 113.019 226.489 114.105C226.774 114.461 227.124 114.759 227.522 114.982C228.042 115.205 228.601 115.324 229.167 115.333L231.766 115.588C231.894 115.629 232.029 115.641 232.161 115.623C232.294 115.604 232.42 115.555 232.531 115.48C232.642 115.404 232.734 115.304 232.8 115.188C232.866 115.071 232.905 114.941 232.913 114.807C234.867 108.597 235.754 102.1 235.539 95.5921C235.439 92.3123 235.043 89.0484 234.357 85.8399C233.954 83.9632 233.482 81.6128 231.495 80.8499C228.878 79.8939 225.185 81.1919 222.944 82.4811Z" fill="#EEA886"/>
</g>
<defs>
<linearGradient id="paint0_linear_156_3662" x1="137.164" y1="227.141" x2="139.721" y2="299.528" gradientUnits="userSpaceOnUse">
<stop stop-opacity="0"/>
<stop offset="0.95"/>
</linearGradient>
<linearGradient id="paint1_linear_156_3662" x1="59.2513" y1="203.138" x2="56.6941" y2="102.214" gradientUnits="userSpaceOnUse">
<stop stop-opacity="0"/>
<stop offset="0.99"/>
</linearGradient>
<linearGradient id="paint2_linear_156_3662" x1="224.056" y1="189.229" x2="222.351" y2="125.919" gradientUnits="userSpaceOnUse">
<stop stop-opacity="0"/>
<stop offset="0.95"/>
</linearGradient>
<linearGradient id="paint3_linear_156_3662" x1="135.598" y1="209.119" x2="139.579" y2="71.712" gradientUnits="userSpaceOnUse">
<stop stop-opacity="0"/>
<stop offset="0.99"/>
</linearGradient>
<clipPath id="clip0_156_3662">
<rect width="276" height="268" fill="white"/>
</clipPath>
</defs>
</svg>
